<svg width="1367" height="324" viewBox="0 0 1367 324" fill="none" xmlns="http://www.w3.org/2000/svg">
<path d="M904.769 324C846.269 324 817.469 284.4 817.469 245.25C817.469 157.5 882.719 85.95 893.069 14.85C894.419 4.95002 901.169 0 913.319 0C948.419 0 1016.82 37.35 1016.82 86.4C1016.82 125.1 967.319 184.05 943.919 207C995.219 173.25 1053.72 82.8 1083.87 18.9C1087.02 12.15 1091.97 8.55 1099.17 8.55C1130.22 8.55 1187.82 59.4 1187.82 94.95C1187.82 126.45 1155.42 191.7 1144.17 209.25C1180.62 175.05 1223.37 79.65 1236.42 12.6C1238.22 4.05 1246.32 0 1257.57 0C1294.47 0 1366.47 43.2 1366.47 86.4C1366.47 138.6 1289.97 324 1118.52 324C1074.42 324 1044.27 305.1 1044.27 265.05C1044.27 260.1 1044.72 255.15 1045.62 249.75C997.469 300.6 947.969 324 904.769 324Z" fill="white"/>
<path d="M590.224 324C472.324 324 418.324 257.85 418.324 180.9C418.324 83.25 528.574 0 651.424 0C769.774 0 821.974 67.95 821.974 144.45C821.974 242.55 712.624 324 590.224 324ZM582.124 195.75C624.874 195.75 672.124 168.3 679.774 132.75C673.024 130.95 665.824 130.05 658.174 130.05C615.424 130.05 568.174 157.5 560.524 193.05C567.274 194.85 574.474 195.75 582.124 195.75Z" fill="white"/>
<path d="M102.15 324C62.1 324 0 281.25 0 246.6C0 242.1 1.35001 237.6 3.60001 233.55L112.05 14.85C117.45 4.5 126.9 0 139.5 0C177.75 0 238.5 40.95 238.5 78.3C238.5 83.25 237.6 88.2 235.35 92.7L206.55 148.95L252.9 147.6L319.05 14.85C324 4.95002 333 0 345.15 0C383.4 0 445.5 44.1 445.5 79.2C445.5 83.7 444.15 88.2 441.9 92.7L336.15 308.25C331.2 318.15 321.75 324 308.7 324C270 324 206.55 282.15 206.55 247.95C206.55 244.8 207 241.65 208.35 238.5L214.65 225L125.1 227.25L166.95 230.85L129.15 308.25C124.2 318.6 114.75 324 102.15 324Z" fill="white"/>
</svg>
