<svg width="1868" height="413" viewBox="0 0 1868 413" fill="none" xmlns="http://www.w3.org/2000/svg">
<path d="M1586.26 412.91C1419.37 412.91 1375.79 321.153 1375.79 251.761C1375.79 86.023 1550.7 0 1733.07 0C1837.44 0 1867.84 51.6138 1867.84 106.669C1867.84 149.107 1847.76 180.075 1833.43 180.075C1815.65 180.075 1797.3 162.87 1723.32 162.87C1661.38 162.87 1593.14 177.207 1540.95 205.308C1540.95 205.308 1651.06 174.34 1717.58 174.34C1723.32 174.34 1724.47 180.075 1724.47 188.677C1724.47 212.764 1717.58 243.158 1704.39 250.614C1694.07 256.349 1659.09 260.363 1620.66 260.363C1591.99 260.363 1561.6 258.069 1537.51 254.628C1559.87 268.392 1590.84 274.7 1624.68 274.7C1675.72 274.7 1731.92 259.789 1765.18 234.556C1770.34 230.542 1774.93 228.821 1778.95 228.821C1791.56 228.821 1799.02 246.026 1799.02 268.965C1799.02 308.536 1777.23 363.017 1722.17 387.103C1678.01 406.602 1636.15 412.91 1586.26 412.91Z" fill="white"/>
<path d="M1108.57 412.91C1055.81 412.91 970.935 361.87 970.935 305.668C970.935 80.8616 949.143 41.291 949.143 22.9395C949.143 6.88185 961.759 0 984.699 0C1059.83 0 1150.44 64.2305 1150.44 146.239C1150.44 176.634 1142.98 221.939 1111.44 256.922C1146.42 229.395 1203.77 137.637 1237.61 20.0721C1241.62 6.30838 1253.66 0 1270.3 0C1325.35 0 1404.49 52.1873 1404.49 107.815C1404.49 114.124 1403.92 119.859 1401.62 126.167C1362.63 239.144 1245.06 361.87 1129.79 409.469C1123.48 411.763 1116.6 412.91 1108.57 412.91Z" fill="white"/>
<path d="M781.313 412.91C730.272 412.91 651.131 358.429 651.131 314.271C651.131 308.536 652.852 302.801 655.719 297.64L793.93 18.925C800.811 5.73486 812.855 0 828.912 0C877.659 0 955.079 52.1873 955.079 99.7867C955.079 106.095 953.932 112.403 951.065 118.138L815.722 392.838C809.414 405.455 797.37 412.91 781.313 412.91Z" fill="white"/>
<path d="M302.985 412.91C259.4 412.91 219.829 385.957 219.829 336.637C219.829 313.124 228.431 278.714 250.224 244.305L285.207 242.011C324.204 199 369.509 97.4927 399.904 14.3372C403.345 5.16138 413.094 0 427.431 0C477.325 0 573.097 51.0403 573.097 104.948C573.097 146.239 514.601 216.204 485.353 237.997C549.01 237.997 606.933 194.412 618.976 194.412C635.033 194.412 648.224 231.115 648.224 274.7C648.224 352.121 615.535 412.91 524.924 412.91C454.959 412.91 370.083 379.648 315.601 376.207L372.95 390.544C352.304 406.029 327.645 412.91 302.985 412.91Z" fill="white"/>
<path d="M124.447 412.91C67.0979 412.91 0 368.178 0 310.83C0 280.435 26.9539 233.409 80.8616 233.409C141.651 233.409 205.882 278.714 205.882 333.769C205.882 371.619 173.766 412.91 124.447 412.91Z" fill="white"/>
</svg>
