<?xml version='1.0' encoding='utf-8'?>
<svg xmlns="http://www.w3.org/2000/svg" width="1920" height="324" viewBox="0 0 1920 324" fill="none">
<path d="M1669.17 324C1634.97 324 1603.92 302.85 1603.92 264.15C1603.92 245.7 1610.67 218.7 1627.77 191.7L1655.22 189.9C1685.82 156.15 1721.37 76.5 1745.22 11.25C1747.92 4.05 1755.57 0 1766.82 0C1805.97 0 1881.12 40.05 1881.12 82.35C1881.12 114.75 1835.22 169.65 1812.27 186.75C1862.22 186.75 1907.67 152.55 1917.12 152.55C1929.72 152.55 1940.07 181.35 1940.07 215.55C1940.07 276.3 1914.42 324 1843.32 324C1788.42 324 1721.82 297.9 1679.07 295.2L1724.07 306.45C1707.87 318.6 1688.52 324 1669.17 324Z" fill="white"/>
<path d="M1434.66 324C1303.71 324 1269.51 252 1269.51 197.55C1269.51 67.5 1406.76 0 1549.86 0C1631.76 0 1655.61 40.5 1655.61 83.7C1655.61 117 1639.86 141.3 1628.61 141.3C1614.66 141.3 1600.26 127.8 1542.21 127.8C1493.61 127.8 1440.06 139.05 1399.11 161.1C1399.11 161.1 1485.51 136.8 1537.71 136.8C1542.21 136.8 1543.11 141.3 1543.11 148.05C1543.11 166.95 1537.71 190.8 1527.36 196.65C1519.26 201.15 1491.81 204.3 1461.66 204.3C1439.16 204.3 1415.31 202.5 1396.41 199.8C1413.96 210.6 1438.26 215.55 1464.81 215.55C1504.86 215.55 1548.96 203.85 1575.06 184.05C1579.11 180.9 1582.71 179.55 1585.86 179.55C1595.76 179.55 1601.61 193.05 1601.61 211.05C1601.61 242.1 1584.51 284.85 1541.31 303.75C1506.66 319.05 1473.81 324 1434.66 324Z" fill="white"/>
<path d="M1006.44 324C887.637 324 858.837 272.25 858.837 235.8C858.837 198 899.337 154.35 941.187 142.65L913.287 145.8C895.287 147.15 879.987 95.85 879.987 56.25C879.987 34.2 884.937 15.75 896.637 13.05C932.187 4.49999 980.337 0 1024.89 0C1144.14 0 1269.24 27.9 1269.24 137.7C1269.24 253.8 1126.14 324 1006.44 324ZM1021.29 205.65C1064.04 198.9 1107.24 166.05 1113.54 149.85C1100.04 141.3 1069.89 138.15 1045.59 138.15C1035.24 138.15 1026.24 138.6 1019.49 139.5L1050.09 142.2L1021.29 205.65Z" fill="white"/>
<path d="M640.731 324C522.831 324 468.831 257.85 468.831 180.9C468.831 83.25 579.081 0 701.931 0C820.281 0 872.481 67.95 872.481 144.45C872.481 242.55 763.131 324 640.731 324ZM632.631 195.75C675.381 195.75 722.631 168.3 730.281 132.75C723.531 130.95 716.331 130.05 708.681 130.05C665.931 130.05 618.681 157.5 611.031 193.05C617.781 194.85 624.981 195.75 632.631 195.75Z" fill="white"/>
<path d="M63.6975 324C27.2475 324 -28.1025 269.1 -28.1025 230.85C-28.1025 223.2 -26.3025 216 -20.9025 210.6C20.9475 170.55 72.2475 110.25 122.647 9.90001C126.247 3.15002 132.997 0 141.547 0C169.447 0 245.497 39.15 245.497 106.65C245.497 120.15 243.247 132.3 241.447 139.05C288.247 83.7 348.097 18 374.647 2.70002C377.797 0.900016 381.397 0 385.897 0C419.197 0 479.947 54.9 479.947 93.6C479.947 98.1 478.598 102.6 477.247 106.65C450.247 183.6 449.797 235.8 449.797 303.75C449.797 317.7 438.997 324 423.247 324C377.797 324 315.697 277.65 315.697 234C315.697 223.65 322.897 208.35 330.997 195.75C294.997 244.8 258.547 288.9 237.847 306.45C230.647 312.3 222.997 315 214.897 315C181.597 315 145.147 270.45 145.147 220.5C145.147 216.9 145.147 212.85 145.597 209.25C137.047 244.8 103.747 301.5 79.8975 319.05C75.3975 322.65 69.5475 324 63.6975 324Z" fill="white"/>
</svg>