<svg width="1695" height="324" viewBox="0 0 1695 324" fill="none" xmlns="http://www.w3.org/2000/svg">
<path d="M1473.86 324C1342.91 324 1308.71 252 1308.71 197.55C1308.71 67.5 1445.96 0 1589.06 0C1670.96 0 1694.81 40.5 1694.81 83.7C1694.81 117 1679.06 141.3 1667.81 141.3C1653.86 141.3 1639.46 127.8 1581.41 127.8C1532.81 127.8 1479.26 139.05 1438.31 161.1C1438.31 161.1 1524.71 136.8 1576.91 136.8C1581.41 136.8 1582.31 141.3 1582.31 148.05C1582.31 166.95 1576.91 190.8 1566.56 196.65C1558.46 201.15 1531.01 204.3 1500.86 204.3C1478.36 204.3 1454.51 202.5 1435.61 199.8C1453.16 210.6 1477.46 215.55 1504.01 215.55C1544.06 215.55 1588.16 203.85 1614.26 184.05C1618.31 180.9 1621.91 179.55 1625.06 179.55C1634.96 179.55 1640.81 193.05 1640.81 211.05C1640.81 242.1 1623.71 284.85 1580.51 303.75C1545.86 319.05 1513.01 324 1473.86 324Z" fill="white"/>
<path d="M1118.73 324C990.028 324 955.828 252 955.828 198C955.828 84.15 1080.03 0 1223.58 0C1306.38 0 1331.13 44.1 1331.13 83.25C1331.13 115.65 1314.48 144.9 1300.08 144.45L1267.23 143.55C1147.53 143.55 1084.08 176.85 1076.43 185.4C1086.78 189.9 1102.53 191.25 1120.98 191.25C1168.23 191.25 1233.03 179.55 1265.88 168.3C1268.13 167.4 1270.38 166.95 1272.63 166.95C1284.78 166.95 1290.63 180.9 1290.63 199.8C1290.63 234.45 1270.83 286.65 1235.73 301.05C1201.53 315 1157.88 324 1118.73 324Z" fill="white"/>
<path d="M846.636 324C806.586 324 744.486 281.25 744.486 246.6C744.486 242.1 745.836 237.6 748.086 233.55L856.536 14.85C861.936 4.5 871.386 0 883.986 0C922.236 0 982.986 40.95 982.986 78.3C982.986 83.25 982.086 88.2 979.836 92.7L873.636 308.25C868.686 318.15 859.236 324 846.636 324Z" fill="white"/>
<path d="M476.125 324C436.525 324 373.975 281.25 373.975 246.6C373.975 242.1 375.325 238.05 377.575 233.55C418.525 150.3 427.075 149.85 463.075 140.4L420.325 145.8C402.325 148.05 387.025 95.85 387.025 56.25C387.025 34.2 391.975 15.75 403.675 13.05C448.675 2.70002 508.075 0 548.125 0C709.675 0 780.325 44.1 780.325 110.7C780.325 157.5 743.425 188.55 685.375 207.45C702.925 210.6 715.975 213.75 725.425 217.8C733.975 221.4 737.575 230.4 737.575 240.75C737.575 272.7 704.725 324 669.625 324C666.475 324 663.775 323.55 660.625 322.65C615.625 310.95 575.125 295.65 483.325 272.7L514.375 285.3L503.125 308.25C498.175 318.6 488.725 324 476.125 324ZM559.825 170.55C585.475 166.05 617.425 150.3 627.775 139.95C616.525 137.25 594.925 136.35 571.525 136.35H553.525L575.125 140.4L559.825 170.55Z" fill="white"/>
<path d="M102.6 324C62.1 324 0 281.7 0 247.05C0 242.55 1.35 238.05 3.6 233.55C40.05 160.2 44.55 147.6 81 137.7L45.9 145.8C28.35 149.85 12.6 95.4 12.6 56.25C12.6 34.2 17.1 15.75 29.7 13.05C70.2 4.49999 125.1 0 174.15 0C306 0 389.7 56.25 389.7 143.55C389.7 226.8 319.5 280.35 207.45 280.35C186.75 280.35 168.75 278.1 145.8 274.05L129.15 308.25C124.2 318.6 114.75 324 102.6 324ZM195.3 168.3C236.25 161.55 255.6 145.8 262.35 136.8C255.6 133.2 240.75 129.15 216 129.15C208.35 129.15 195.3 129.6 185.4 130.5L211.05 135.45L195.3 168.3Z" fill="white"/>
</svg>
