<svg width="1436" height="324" viewBox="0 0 1436 324" fill="none" xmlns="http://www.w3.org/2000/svg">
<path d="M1115.69 324C1076.54 324 1013.99 281.25 1013.99 246.6C1013.99 242.1 1015.34 237.6 1017.59 233.55L1126.04 14.85C1131.44 4.05 1142.24 0 1155.74 0C1194.89 0 1255.19 38.7 1255.19 75.6C1255.19 96.3 1232.69 125.55 1199.39 140.85C1249.34 126.45 1288.49 63 1324.04 8.55C1327.64 2.70002 1333.94 0 1341.59 0C1375.34 0 1435.64 50.85 1435.64 93.15C1435.64 141.3 1332.14 198.9 1276.79 202.95C1305.14 202.5 1346.54 211.05 1360.04 220.95C1366.34 225.45 1369.49 234.9 1369.49 246.15C1369.49 277.2 1345.64 324 1311.89 324C1284.89 324 1219.19 293.4 1126.49 272.25L1154.39 283.95L1142.69 309.15C1137.74 319.5 1128.29 324 1115.69 324Z" fill="white"/>
<path d="M740.812 324C706.612 324 675.562 302.85 675.562 264.15C675.562 245.7 682.312 218.7 699.412 191.7L726.862 189.9C757.462 156.15 793.013 76.5 816.863 11.25C819.563 4.05 827.213 0 838.463 0C877.613 0 952.762 40.05 952.762 82.35C952.762 114.75 906.862 169.65 883.912 186.75C933.862 186.75 979.313 152.55 988.763 152.55C1001.36 152.55 1011.71 181.35 1011.71 215.55C1011.71 276.3 986.063 324 914.963 324C860.063 324 793.463 297.9 750.713 295.2L795.713 306.45C779.513 318.6 760.163 324 740.812 324Z" fill="white"/>
<path d="M359.508 324C323.058 324 271.758 265.5 271.758 228.6C271.758 224.1 272.658 219.6 274.458 216C310.008 138.6 433.308 0 537.708 0C612.858 0 673.158 42.3 673.158 180.9C673.158 216 669.108 260.1 660.558 308.7C658.758 319.5 647.958 324 633.558 324C593.058 324 521.508 285.3 521.508 252C521.508 249.3 521.958 246.6 521.958 246.6C509.808 245.25 494.508 244.8 476.508 244.8C462.108 244.8 445.908 245.25 427.458 246.15C416.208 261.45 393.708 294.75 383.358 310.5C377.058 319.95 368.958 324 359.508 324ZM539.058 167.4C541.758 156.6 545.358 129.6 544.008 114.75C521.958 126.45 495.858 150.3 482.358 166.95L539.058 167.4Z" fill="white"/>
<path d="M146.25 324C84.6 324 28.35 283.5 28.35 241.2C28.35 211.95 64.35 164.25 106.2 137.7C83.25 143.1 38.7 162 33.75 162C16.65 162 0 126.9 0 89.1C0 40.95 25.65 0 74.7 0C129.15 0 181.35 27.9 225.9 31.05L180.45 18.45C201.6 7.20002 227.7 0 252 0C301.95 0 347.85 22.95 347.85 67.95C347.85 91.8 334.8 121.95 302.85 157.95L239.4 144.9C208.8 201.6 188.55 245.7 164.7 310.95C162 318.15 157.5 324 146.25 324Z" fill="white"/>
</svg>
