<svg width="1632" height="324" viewBox="0 0 1632 324" fill="none" xmlns="http://www.w3.org/2000/svg">
<path d="M1429.63 324C1367.98 324 1311.73 283.5 1311.73 241.2C1311.73 211.95 1347.73 164.25 1389.58 137.7C1366.63 143.1 1322.08 162 1317.13 162C1300.03 162 1283.38 126.9 1283.38 89.1C1283.38 40.95 1309.03 0 1358.08 0C1412.53 0 1464.73 27.9 1509.28 31.05L1463.83 18.45C1484.98 7.20002 1511.08 0 1535.38 0C1585.33 0 1631.23 22.95 1631.23 67.95C1631.23 91.8 1618.18 121.95 1586.23 157.95L1522.78 144.9C1492.18 201.6 1471.93 245.7 1448.08 310.95C1445.38 318.15 1440.88 324 1429.63 324Z" fill="white"/>
<path d="M969.645 324C933.195 324 881.895 265.5 881.895 228.6C881.895 224.1 882.795 219.6 884.595 216C920.145 138.6 1043.44 0 1147.84 0C1222.99 0 1283.29 42.3 1283.29 180.9C1283.29 216 1279.24 260.1 1270.69 308.7C1268.89 319.5 1258.09 324 1243.69 324C1203.19 324 1131.64 285.3 1131.64 252C1131.64 249.3 1132.09 246.6 1132.09 246.6C1119.94 245.25 1104.64 244.8 1086.64 244.8C1072.24 244.8 1056.04 245.25 1037.59 246.15C1026.34 261.45 1003.84 294.75 993.495 310.5C987.195 319.95 979.095 324 969.645 324ZM1149.19 167.4C1151.89 156.6 1155.49 129.6 1154.14 114.75C1132.09 126.45 1105.99 150.3 1092.49 166.95L1149.19 167.4Z" fill="white"/>
<path d="M601.72 324C561.67 324 499.57 281.25 499.57 246.6C499.57 242.1 500.92 237.6 503.17 233.55L611.62 14.85C617.02 4.5 626.47 0 639.07 0C677.32 0 738.07 40.95 738.07 78.3C738.07 83.25 737.17 88.2 734.92 92.7L706.12 148.95L752.47 147.6L818.62 14.85C823.57 4.95002 832.57 0 844.72 0C882.97 0 945.07 44.1 945.07 79.2C945.07 83.7 943.72 88.2 941.47 92.7L835.72 308.25C830.77 318.15 821.32 324 808.27 324C769.57 324 706.12 282.15 706.12 247.95C706.12 244.8 706.57 241.65 707.92 238.5L714.22 225L624.67 227.25L666.52 230.85L628.72 308.25C623.77 318.6 614.32 324 601.72 324Z" fill="white"/>
<path d="M87.3 324C28.8 324 0 284.4 0 245.25C0 157.5 65.25 85.95 75.6 14.85C76.95 4.95002 83.7 0 95.85 0C130.95 0 199.35 37.35 199.35 86.4C199.35 125.1 149.85 184.05 126.45 207C177.75 173.25 236.25 82.8 266.4 18.9C269.55 12.15 274.5 8.55 281.7 8.55C312.75 8.55 370.35 59.4 370.35 94.95C370.35 126.45 337.95 191.7 326.7 209.25C363.15 175.05 405.9 79.65 418.95 12.6C420.75 4.05 428.85 0 440.1 0C477 0 549 43.2 549 86.4C549 138.6 472.5 324 301.05 324C256.95 324 226.8 305.1 226.8 265.05C226.8 260.1 227.25 255.15 228.15 249.75C180 300.6 130.5 324 87.3 324Z" fill="white"/>
</svg>
