<svg width="1692" height="324" viewBox="0 0 1692 324" fill="none" xmlns="http://www.w3.org/2000/svg">
<path d="M1354.45 324C1319.8 324 1254.55 281.7 1254.55 247.05C1254.55 242.1 1255.9 238.05 1258.15 233.55L1365.7 16.2C1371.55 4.49999 1382.8 0 1396.3 0C1426 0 1463.35 24.3 1487.65 57.15C1506.55 82.8 1522.75 112.5 1522.75 152.55C1522.75 162 1521.4 172.8 1518.7 181.35C1541.2 144.45 1555.6 62.55 1555.6 12.6C1555.6 3.60001 1565.05 0 1575.85 0C1628.95 0 1691.05 37.8 1691.05 81C1691.05 170.55 1609.6 324 1532.65 324C1492.6 324 1464.25 304.65 1448.05 284.4C1429.6 261 1431.85 214.65 1426 173.25V201.15C1426 230.4 1414.3 253.35 1382.35 310.5C1376.95 319.95 1366.6 324 1354.45 324Z" fill="white"/>
<path d="M1083.04 324C952.095 324 917.895 252 917.895 197.55C917.895 67.5 1055.14 0 1198.24 0C1280.14 0 1303.99 40.5 1303.99 83.7C1303.99 117 1288.24 141.3 1276.99 141.3C1263.04 141.3 1248.64 127.8 1190.59 127.8C1141.99 127.8 1088.44 139.05 1047.49 161.1C1047.49 161.1 1133.89 136.8 1186.09 136.8C1190.59 136.8 1191.49 141.3 1191.49 148.05C1191.49 166.95 1186.09 190.8 1175.74 196.65C1167.64 201.15 1140.19 204.3 1110.04 204.3C1087.54 204.3 1063.69 202.5 1044.79 199.8C1062.34 210.6 1086.64 215.55 1113.19 215.55C1153.24 215.55 1197.34 203.85 1223.44 184.05C1227.49 180.9 1231.09 179.55 1234.24 179.55C1244.14 179.55 1249.99 193.05 1249.99 211.05C1249.99 242.1 1232.89 284.85 1189.69 303.75C1155.04 319.05 1122.19 324 1083.04 324Z" fill="white"/>
<path d="M601.72 324C561.67 324 499.57 281.25 499.57 246.6C499.57 242.1 500.92 237.6 503.17 233.55L611.62 14.85C617.02 4.5 626.47 0 639.07 0C677.32 0 738.07 40.95 738.07 78.3C738.07 83.25 737.17 88.2 734.92 92.7L706.12 148.95L752.47 147.6L818.62 14.85C823.57 4.95002 832.57 0 844.72 0C882.97 0 945.07 44.1 945.07 79.2C945.07 83.7 943.72 88.2 941.47 92.7L835.72 308.25C830.77 318.15 821.32 324 808.27 324C769.57 324 706.12 282.15 706.12 247.95C706.12 244.8 706.57 241.65 707.92 238.5L714.22 225L624.67 227.25L666.52 230.85L628.72 308.25C623.77 318.6 614.32 324 601.72 324Z" fill="white"/>
<path d="M87.3 324C28.8 324 0 284.4 0 245.25C0 157.5 65.25 85.95 75.6 14.85C76.95 4.95002 83.7 0 95.85 0C130.95 0 199.35 37.35 199.35 86.4C199.35 125.1 149.85 184.05 126.45 207C177.75 173.25 236.25 82.8 266.4 18.9C269.55 12.15 274.5 8.55 281.7 8.55C312.75 8.55 370.35 59.4 370.35 94.95C370.35 126.45 337.95 191.7 326.7 209.25C363.15 175.05 405.9 79.65 418.95 12.6C420.75 4.05 428.85 0 440.1 0C477 0 549 43.2 549 86.4C549 138.6 472.5 324 301.05 324C256.95 324 226.8 305.1 226.8 265.05C226.8 260.1 227.25 255.15 228.15 249.75C180 300.6 130.5 324 87.3 324Z" fill="white"/>
</svg>
